M48
;GenerationSoftware,Autodesk,EAGLE,9.2.2*%
;CreationDate,2019-09-28T14:04:05Z*%
FMAT,2
ICI,OFF
METRIC,TZ,000.000
T9C0.700
T8C0.800
T7C0.813
T6C0.900
T5C1.000
T4C1.016
T3C1.118
T2C1.500
T1C3.000
%
G90
M71
T1
X66380Y11522
X81620Y41240
T2
X65364Y45812
X82636Y45812
X82636Y6188
X65364Y6188
T3
X55687Y5606
X58227Y5606
T4
X28972Y28937
X28215Y13270
X30755Y13270
X33295Y13270
X35835Y13270
X41659Y73551
X44199Y73551
X46739Y73551
X28972Y23857
X28972Y26397
X28972Y31477
X31693Y54560
X31693Y57100
X31693Y59640
X31695Y41783
X31695Y44323
X31695Y46863
X28373Y6674
X30913Y6674
X33453Y6674
X35993Y6674
T5
X49934Y38374
X47369Y19314
X44887Y19362
X42210Y38374
X44887Y38442
X47359Y38442
X60319Y59385
X80469Y56788
X80449Y54256
X60348Y54288
X60298Y56888
X60359Y61965
X60309Y64533
X60409Y67042
X80469Y59356
X80469Y61925
X80419Y64465
X80419Y66997
T6
X41707Y64772
X41707Y57152
X50024Y6617
X50024Y8817
X50024Y11017
X34480Y65671
X34480Y73291
X50024Y14217
X46824Y8817
X26814Y49614
X34434Y49614
X27040Y62180
X46824Y11017
X34660Y62180
X26859Y36434
X34479Y36434
X46824Y14217
X59564Y31630
X46824Y6617
X59564Y24010
T7
X26817Y66501
X26818Y45626
X26817Y69041
X26818Y43086
X60000Y14397
X60000Y11857
X26860Y58368
X26860Y55828
X60000Y16937
X24933Y73152
X30013Y73152
X44249Y52129
X46789Y52129
X41709Y52129
X27473Y73152
T8
X53620Y21520
X53620Y18980
X53620Y24060
X53620Y26600
X53620Y29140
X53620Y31680
X53620Y34220
X53620Y36760
X53620Y39300
X53620Y41840
X53620Y44380
X53620Y46920
X53620Y49460
X46846Y70919
X53620Y54540
X53620Y57080
X53620Y59620
X53620Y62160
X53620Y64700
X53620Y67240
X38380Y18980
X38380Y21520
X38380Y24060
X38380Y26600
X38380Y29140
X38380Y31680
X38380Y34220
X38380Y36760
X38380Y39300
X38380Y41840
X38380Y44380
X38380Y46920
X38380Y49460
X38380Y52000
X38380Y54540
X38380Y57080
X38380Y59620
X38380Y62160
X38380Y64700
X38380Y67240
X51048Y69098
X42000Y69000
X67162Y54646
X56234Y44377
X70309Y36749
X60410Y36783
X53620Y52000
X53678Y70926
X31745Y39169
X31739Y51859
X24990Y52000
X24920Y38999
T9
X29000Y21000
X24920Y17000
X57000Y11000
X62000Y5606
X31765Y31544
X31765Y23392
M30