G75*
%MOIN*%
%OFA0B0*%
%FSLAX25Y25*%
%IPPOS*%
%LPD*%
%AMOC8*
5,1,8,0,0,1.08239X$1,22.5*
%
%ADD10C,0.07400*%
%ADD11C,0.07400*%
%ADD12C,0.05600*%
%ADD13R,0.09843X0.09843*%
%ADD14C,0.05150*%
%ADD15C,0.07874*%
%ADD16C,0.05200*%
%ADD17C,0.03937*%
D10*
X0130531Y0009591D02*
X0130531Y0016991D01*
X0140531Y0016991D02*
X0140531Y0009591D01*
D11*
X0022996Y0017496D03*
X0032996Y0017496D03*
X0042996Y0017496D03*
X0052996Y0017496D03*
X0052374Y0043465D03*
X0042374Y0043465D03*
X0032374Y0043465D03*
X0022374Y0043465D03*
X0025354Y0085146D03*
X0025354Y0095146D03*
X0025354Y0105146D03*
X0025354Y0115146D03*
X0017035Y0134661D03*
X0036075Y0155720D03*
X0036075Y0165720D03*
X0036075Y0175720D03*
X0046858Y0186551D03*
X0036067Y0206024D03*
X0036067Y0216024D03*
X0036067Y0226024D03*
X0047748Y0236024D03*
X0047039Y0249768D03*
X0075492Y0246228D03*
X0075492Y0216228D03*
X0017039Y0221016D03*
X0017039Y0211016D03*
X0016858Y0186551D03*
X0016874Y0170850D03*
X0016874Y0160850D03*
X0047035Y0134661D03*
X0017748Y0236024D03*
X0016870Y0253035D03*
X0016870Y0263035D03*
X0047039Y0279768D03*
X0075303Y0280791D03*
X0085303Y0280791D03*
X0095303Y0280791D03*
X0145795Y0115748D03*
X0145795Y0085748D03*
D12*
X0108236Y0047193D03*
X0095638Y0047193D03*
X0095638Y0034594D03*
X0095638Y0025933D03*
X0095638Y0017272D03*
X0108236Y0017272D03*
X0108236Y0025933D03*
X0108236Y0034594D03*
D13*
X0168630Y0015583D03*
X0236630Y0015583D03*
X0236630Y0171583D03*
X0168630Y0171583D03*
D14*
X0124969Y0175945D02*
X0119819Y0175945D01*
X0119819Y0165945D02*
X0124969Y0165945D01*
X0124969Y0155945D02*
X0119819Y0155945D01*
X0119819Y0145945D02*
X0124969Y0145945D01*
X0124969Y0135945D02*
X0119819Y0135945D01*
X0119819Y0125945D02*
X0124969Y0125945D01*
X0124969Y0115945D02*
X0119819Y0115945D01*
X0119819Y0105945D02*
X0124969Y0105945D01*
X0124969Y0095945D02*
X0119819Y0095945D01*
X0119819Y0085945D02*
X0124969Y0085945D01*
X0124969Y0075945D02*
X0119819Y0075945D01*
X0119819Y0065945D02*
X0124969Y0065945D01*
X0064969Y0065945D02*
X0059819Y0065945D01*
X0059819Y0075945D02*
X0064969Y0075945D01*
X0064969Y0085945D02*
X0059819Y0085945D01*
X0059819Y0095945D02*
X0064969Y0095945D01*
X0064969Y0105945D02*
X0059819Y0105945D01*
X0059819Y0115945D02*
X0064969Y0115945D01*
X0064969Y0125945D02*
X0059819Y0125945D01*
X0059819Y0135945D02*
X0064969Y0135945D01*
X0064969Y0145945D02*
X0059819Y0145945D01*
X0059819Y0155945D02*
X0064969Y0155945D01*
X0064969Y0165945D02*
X0059819Y0165945D01*
X0059819Y0175945D02*
X0064969Y0175945D01*
X0064969Y0185945D02*
X0059819Y0185945D01*
X0059819Y0195945D02*
X0064969Y0195945D01*
X0064969Y0205945D02*
X0059819Y0205945D01*
X0059819Y0215945D02*
X0064969Y0215945D01*
X0064969Y0225945D02*
X0059819Y0225945D01*
X0059819Y0235945D02*
X0064969Y0235945D01*
X0064969Y0245945D02*
X0059819Y0245945D01*
X0059819Y0255945D02*
X0064969Y0255945D01*
X0119819Y0255945D02*
X0124969Y0255945D01*
X0124969Y0245945D02*
X0119819Y0245945D01*
X0119819Y0235945D02*
X0124969Y0235945D01*
X0124969Y0225945D02*
X0119819Y0225945D01*
X0119819Y0215945D02*
X0124969Y0215945D01*
X0124969Y0205945D02*
X0119819Y0205945D01*
X0119819Y0195945D02*
X0124969Y0195945D01*
X0124969Y0185945D02*
X0119819Y0185945D01*
D15*
X0132685Y0165933D03*
X0107881Y0142298D03*
X0097743Y0142566D03*
X0088012Y0142566D03*
X0077474Y0142298D03*
X0036272Y0145429D03*
X0009401Y0144760D03*
X0036350Y0115409D03*
X0036350Y0083315D03*
X0025465Y0073898D03*
X0009401Y0058150D03*
X0088012Y0067447D03*
X0097783Y0067258D03*
X0135701Y0034528D03*
X0155386Y0013291D03*
X0149126Y0136035D03*
X0188098Y0135902D03*
X0175709Y0206362D03*
X0148881Y0204953D03*
X0148684Y0215191D03*
X0148769Y0225019D03*
X0148926Y0235176D03*
X0148729Y0245289D03*
X0149123Y0255164D03*
X0122622Y0270457D03*
X0112268Y0263260D03*
X0095724Y0270429D03*
X0076646Y0262874D03*
X0036248Y0195390D03*
X0009676Y0195944D03*
X0227902Y0245020D03*
X0228099Y0235020D03*
X0228099Y0224907D03*
X0228099Y0214795D03*
X0228020Y0204827D03*
X0227902Y0254987D03*
D16*
X0095500Y0199053D02*
X0095500Y0193853D01*
X0085500Y0193853D02*
X0085500Y0199053D01*
X0075500Y0199053D02*
X0075500Y0193853D01*
X0029453Y0276620D02*
X0029453Y0281820D01*
X0019453Y0281820D02*
X0019453Y0276620D01*
X0009453Y0276620D02*
X0009453Y0281820D01*
X0144912Y0057902D02*
X0150112Y0057902D01*
X0150112Y0047902D02*
X0144912Y0047902D01*
X0144912Y0037902D02*
X0150112Y0037902D01*
D17*
X0135701Y0034528D02*
X0155386Y0013291D01*
X0149126Y0136035D02*
X0187965Y0136035D01*
X0188098Y0135902D01*
X0132685Y0165933D02*
X0172232Y0206362D01*
X0175709Y0206362D01*
X0122622Y0270457D02*
X0095752Y0270457D01*
X0095724Y0270429D01*
X0112078Y0262874D02*
X0076646Y0262874D01*
X0112078Y0262874D02*
X0112268Y0263260D01*
X0036248Y0195944D02*
X0009676Y0195944D01*
X0036248Y0195944D02*
X0036248Y0195390D01*
X0036272Y0145429D02*
X0036272Y0144760D01*
X0009401Y0144760D01*
X0036272Y0144763D02*
X0036272Y0145429D01*
X0036350Y0115409D02*
X0036350Y0083315D01*
X0025465Y0073898D02*
X0009401Y0073898D01*
X0009401Y0058150D01*
M02*
