G75*
%MOIN*%
%OFA0B0*%
%FSLAX25Y25*%
%IPPOS*%
%LPD*%
%AMOC8*
5,1,8,0,0,1.08239X$1,22.5*
%
%ADD10C,0.00000*%
D10*
X0001224Y0001453D02*
X0001000Y0288752D01*
X0245870Y0288882D01*
X0245870Y0001000D01*
X0001224Y0001453D01*
X0166724Y0036583D02*
X0166726Y0036736D01*
X0166732Y0036890D01*
X0166742Y0037043D01*
X0166756Y0037195D01*
X0166774Y0037348D01*
X0166796Y0037499D01*
X0166821Y0037650D01*
X0166851Y0037801D01*
X0166885Y0037951D01*
X0166922Y0038099D01*
X0166963Y0038247D01*
X0167008Y0038393D01*
X0167057Y0038539D01*
X0167110Y0038683D01*
X0167166Y0038825D01*
X0167226Y0038966D01*
X0167290Y0039106D01*
X0167357Y0039244D01*
X0167428Y0039380D01*
X0167503Y0039514D01*
X0167580Y0039646D01*
X0167662Y0039776D01*
X0167746Y0039904D01*
X0167834Y0040030D01*
X0167925Y0040153D01*
X0168019Y0040274D01*
X0168117Y0040392D01*
X0168217Y0040508D01*
X0168321Y0040621D01*
X0168427Y0040732D01*
X0168536Y0040840D01*
X0168648Y0040945D01*
X0168762Y0041046D01*
X0168880Y0041145D01*
X0168999Y0041241D01*
X0169121Y0041334D01*
X0169246Y0041423D01*
X0169373Y0041510D01*
X0169502Y0041592D01*
X0169633Y0041672D01*
X0169766Y0041748D01*
X0169901Y0041821D01*
X0170038Y0041890D01*
X0170177Y0041955D01*
X0170317Y0042017D01*
X0170459Y0042075D01*
X0170602Y0042130D01*
X0170747Y0042181D01*
X0170893Y0042228D01*
X0171040Y0042271D01*
X0171188Y0042310D01*
X0171337Y0042346D01*
X0171487Y0042377D01*
X0171638Y0042405D01*
X0171789Y0042429D01*
X0171942Y0042449D01*
X0172094Y0042465D01*
X0172247Y0042477D01*
X0172400Y0042485D01*
X0172553Y0042489D01*
X0172707Y0042489D01*
X0172860Y0042485D01*
X0173013Y0042477D01*
X0173166Y0042465D01*
X0173318Y0042449D01*
X0173471Y0042429D01*
X0173622Y0042405D01*
X0173773Y0042377D01*
X0173923Y0042346D01*
X0174072Y0042310D01*
X0174220Y0042271D01*
X0174367Y0042228D01*
X0174513Y0042181D01*
X0174658Y0042130D01*
X0174801Y0042075D01*
X0174943Y0042017D01*
X0175083Y0041955D01*
X0175222Y0041890D01*
X0175359Y0041821D01*
X0175494Y0041748D01*
X0175627Y0041672D01*
X0175758Y0041592D01*
X0175887Y0041510D01*
X0176014Y0041423D01*
X0176139Y0041334D01*
X0176261Y0041241D01*
X0176380Y0041145D01*
X0176498Y0041046D01*
X0176612Y0040945D01*
X0176724Y0040840D01*
X0176833Y0040732D01*
X0176939Y0040621D01*
X0177043Y0040508D01*
X0177143Y0040392D01*
X0177241Y0040274D01*
X0177335Y0040153D01*
X0177426Y0040030D01*
X0177514Y0039904D01*
X0177598Y0039776D01*
X0177680Y0039646D01*
X0177757Y0039514D01*
X0177832Y0039380D01*
X0177903Y0039244D01*
X0177970Y0039106D01*
X0178034Y0038966D01*
X0178094Y0038825D01*
X0178150Y0038683D01*
X0178203Y0038539D01*
X0178252Y0038393D01*
X0178297Y0038247D01*
X0178338Y0038099D01*
X0178375Y0037951D01*
X0178409Y0037801D01*
X0178439Y0037650D01*
X0178464Y0037499D01*
X0178486Y0037348D01*
X0178504Y0037195D01*
X0178518Y0037043D01*
X0178528Y0036890D01*
X0178534Y0036736D01*
X0178536Y0036583D01*
X0178534Y0036430D01*
X0178528Y0036276D01*
X0178518Y0036123D01*
X0178504Y0035971D01*
X0178486Y0035818D01*
X0178464Y0035667D01*
X0178439Y0035516D01*
X0178409Y0035365D01*
X0178375Y0035215D01*
X0178338Y0035067D01*
X0178297Y0034919D01*
X0178252Y0034773D01*
X0178203Y0034627D01*
X0178150Y0034483D01*
X0178094Y0034341D01*
X0178034Y0034200D01*
X0177970Y0034060D01*
X0177903Y0033922D01*
X0177832Y0033786D01*
X0177757Y0033652D01*
X0177680Y0033520D01*
X0177598Y0033390D01*
X0177514Y0033262D01*
X0177426Y0033136D01*
X0177335Y0033013D01*
X0177241Y0032892D01*
X0177143Y0032774D01*
X0177043Y0032658D01*
X0176939Y0032545D01*
X0176833Y0032434D01*
X0176724Y0032326D01*
X0176612Y0032221D01*
X0176498Y0032120D01*
X0176380Y0032021D01*
X0176261Y0031925D01*
X0176139Y0031832D01*
X0176014Y0031743D01*
X0175887Y0031656D01*
X0175758Y0031574D01*
X0175627Y0031494D01*
X0175494Y0031418D01*
X0175359Y0031345D01*
X0175222Y0031276D01*
X0175083Y0031211D01*
X0174943Y0031149D01*
X0174801Y0031091D01*
X0174658Y0031036D01*
X0174513Y0030985D01*
X0174367Y0030938D01*
X0174220Y0030895D01*
X0174072Y0030856D01*
X0173923Y0030820D01*
X0173773Y0030789D01*
X0173622Y0030761D01*
X0173471Y0030737D01*
X0173318Y0030717D01*
X0173166Y0030701D01*
X0173013Y0030689D01*
X0172860Y0030681D01*
X0172707Y0030677D01*
X0172553Y0030677D01*
X0172400Y0030681D01*
X0172247Y0030689D01*
X0172094Y0030701D01*
X0171942Y0030717D01*
X0171789Y0030737D01*
X0171638Y0030761D01*
X0171487Y0030789D01*
X0171337Y0030820D01*
X0171188Y0030856D01*
X0171040Y0030895D01*
X0170893Y0030938D01*
X0170747Y0030985D01*
X0170602Y0031036D01*
X0170459Y0031091D01*
X0170317Y0031149D01*
X0170177Y0031211D01*
X0170038Y0031276D01*
X0169901Y0031345D01*
X0169766Y0031418D01*
X0169633Y0031494D01*
X0169502Y0031574D01*
X0169373Y0031656D01*
X0169246Y0031743D01*
X0169121Y0031832D01*
X0168999Y0031925D01*
X0168880Y0032021D01*
X0168762Y0032120D01*
X0168648Y0032221D01*
X0168536Y0032326D01*
X0168427Y0032434D01*
X0168321Y0032545D01*
X0168217Y0032658D01*
X0168117Y0032774D01*
X0168019Y0032892D01*
X0167925Y0033013D01*
X0167834Y0033136D01*
X0167746Y0033262D01*
X0167662Y0033390D01*
X0167580Y0033520D01*
X0167503Y0033652D01*
X0167428Y0033786D01*
X0167357Y0033922D01*
X0167290Y0034060D01*
X0167226Y0034200D01*
X0167166Y0034341D01*
X0167110Y0034483D01*
X0167057Y0034627D01*
X0167008Y0034773D01*
X0166963Y0034919D01*
X0166922Y0035067D01*
X0166885Y0035215D01*
X0166851Y0035365D01*
X0166821Y0035516D01*
X0166796Y0035667D01*
X0166774Y0035818D01*
X0166756Y0035971D01*
X0166742Y0036123D01*
X0166732Y0036276D01*
X0166726Y0036430D01*
X0166724Y0036583D01*
X0226724Y0153583D02*
X0226726Y0153736D01*
X0226732Y0153890D01*
X0226742Y0154043D01*
X0226756Y0154195D01*
X0226774Y0154348D01*
X0226796Y0154499D01*
X0226821Y0154650D01*
X0226851Y0154801D01*
X0226885Y0154951D01*
X0226922Y0155099D01*
X0226963Y0155247D01*
X0227008Y0155393D01*
X0227057Y0155539D01*
X0227110Y0155683D01*
X0227166Y0155825D01*
X0227226Y0155966D01*
X0227290Y0156106D01*
X0227357Y0156244D01*
X0227428Y0156380D01*
X0227503Y0156514D01*
X0227580Y0156646D01*
X0227662Y0156776D01*
X0227746Y0156904D01*
X0227834Y0157030D01*
X0227925Y0157153D01*
X0228019Y0157274D01*
X0228117Y0157392D01*
X0228217Y0157508D01*
X0228321Y0157621D01*
X0228427Y0157732D01*
X0228536Y0157840D01*
X0228648Y0157945D01*
X0228762Y0158046D01*
X0228880Y0158145D01*
X0228999Y0158241D01*
X0229121Y0158334D01*
X0229246Y0158423D01*
X0229373Y0158510D01*
X0229502Y0158592D01*
X0229633Y0158672D01*
X0229766Y0158748D01*
X0229901Y0158821D01*
X0230038Y0158890D01*
X0230177Y0158955D01*
X0230317Y0159017D01*
X0230459Y0159075D01*
X0230602Y0159130D01*
X0230747Y0159181D01*
X0230893Y0159228D01*
X0231040Y0159271D01*
X0231188Y0159310D01*
X0231337Y0159346D01*
X0231487Y0159377D01*
X0231638Y0159405D01*
X0231789Y0159429D01*
X0231942Y0159449D01*
X0232094Y0159465D01*
X0232247Y0159477D01*
X0232400Y0159485D01*
X0232553Y0159489D01*
X0232707Y0159489D01*
X0232860Y0159485D01*
X0233013Y0159477D01*
X0233166Y0159465D01*
X0233318Y0159449D01*
X0233471Y0159429D01*
X0233622Y0159405D01*
X0233773Y0159377D01*
X0233923Y0159346D01*
X0234072Y0159310D01*
X0234220Y0159271D01*
X0234367Y0159228D01*
X0234513Y0159181D01*
X0234658Y0159130D01*
X0234801Y0159075D01*
X0234943Y0159017D01*
X0235083Y0158955D01*
X0235222Y0158890D01*
X0235359Y0158821D01*
X0235494Y0158748D01*
X0235627Y0158672D01*
X0235758Y0158592D01*
X0235887Y0158510D01*
X0236014Y0158423D01*
X0236139Y0158334D01*
X0236261Y0158241D01*
X0236380Y0158145D01*
X0236498Y0158046D01*
X0236612Y0157945D01*
X0236724Y0157840D01*
X0236833Y0157732D01*
X0236939Y0157621D01*
X0237043Y0157508D01*
X0237143Y0157392D01*
X0237241Y0157274D01*
X0237335Y0157153D01*
X0237426Y0157030D01*
X0237514Y0156904D01*
X0237598Y0156776D01*
X0237680Y0156646D01*
X0237757Y0156514D01*
X0237832Y0156380D01*
X0237903Y0156244D01*
X0237970Y0156106D01*
X0238034Y0155966D01*
X0238094Y0155825D01*
X0238150Y0155683D01*
X0238203Y0155539D01*
X0238252Y0155393D01*
X0238297Y0155247D01*
X0238338Y0155099D01*
X0238375Y0154951D01*
X0238409Y0154801D01*
X0238439Y0154650D01*
X0238464Y0154499D01*
X0238486Y0154348D01*
X0238504Y0154195D01*
X0238518Y0154043D01*
X0238528Y0153890D01*
X0238534Y0153736D01*
X0238536Y0153583D01*
X0238534Y0153430D01*
X0238528Y0153276D01*
X0238518Y0153123D01*
X0238504Y0152971D01*
X0238486Y0152818D01*
X0238464Y0152667D01*
X0238439Y0152516D01*
X0238409Y0152365D01*
X0238375Y0152215D01*
X0238338Y0152067D01*
X0238297Y0151919D01*
X0238252Y0151773D01*
X0238203Y0151627D01*
X0238150Y0151483D01*
X0238094Y0151341D01*
X0238034Y0151200D01*
X0237970Y0151060D01*
X0237903Y0150922D01*
X0237832Y0150786D01*
X0237757Y0150652D01*
X0237680Y0150520D01*
X0237598Y0150390D01*
X0237514Y0150262D01*
X0237426Y0150136D01*
X0237335Y0150013D01*
X0237241Y0149892D01*
X0237143Y0149774D01*
X0237043Y0149658D01*
X0236939Y0149545D01*
X0236833Y0149434D01*
X0236724Y0149326D01*
X0236612Y0149221D01*
X0236498Y0149120D01*
X0236380Y0149021D01*
X0236261Y0148925D01*
X0236139Y0148832D01*
X0236014Y0148743D01*
X0235887Y0148656D01*
X0235758Y0148574D01*
X0235627Y0148494D01*
X0235494Y0148418D01*
X0235359Y0148345D01*
X0235222Y0148276D01*
X0235083Y0148211D01*
X0234943Y0148149D01*
X0234801Y0148091D01*
X0234658Y0148036D01*
X0234513Y0147985D01*
X0234367Y0147938D01*
X0234220Y0147895D01*
X0234072Y0147856D01*
X0233923Y0147820D01*
X0233773Y0147789D01*
X0233622Y0147761D01*
X0233471Y0147737D01*
X0233318Y0147717D01*
X0233166Y0147701D01*
X0233013Y0147689D01*
X0232860Y0147681D01*
X0232707Y0147677D01*
X0232553Y0147677D01*
X0232400Y0147681D01*
X0232247Y0147689D01*
X0232094Y0147701D01*
X0231942Y0147717D01*
X0231789Y0147737D01*
X0231638Y0147761D01*
X0231487Y0147789D01*
X0231337Y0147820D01*
X0231188Y0147856D01*
X0231040Y0147895D01*
X0230893Y0147938D01*
X0230747Y0147985D01*
X0230602Y0148036D01*
X0230459Y0148091D01*
X0230317Y0148149D01*
X0230177Y0148211D01*
X0230038Y0148276D01*
X0229901Y0148345D01*
X0229766Y0148418D01*
X0229633Y0148494D01*
X0229502Y0148574D01*
X0229373Y0148656D01*
X0229246Y0148743D01*
X0229121Y0148832D01*
X0228999Y0148925D01*
X0228880Y0149021D01*
X0228762Y0149120D01*
X0228648Y0149221D01*
X0228536Y0149326D01*
X0228427Y0149434D01*
X0228321Y0149545D01*
X0228217Y0149658D01*
X0228117Y0149774D01*
X0228019Y0149892D01*
X0227925Y0150013D01*
X0227834Y0150136D01*
X0227746Y0150262D01*
X0227662Y0150390D01*
X0227580Y0150520D01*
X0227503Y0150652D01*
X0227428Y0150786D01*
X0227357Y0150922D01*
X0227290Y0151060D01*
X0227226Y0151200D01*
X0227166Y0151341D01*
X0227110Y0151483D01*
X0227057Y0151627D01*
X0227008Y0151773D01*
X0226963Y0151919D01*
X0226922Y0152067D01*
X0226885Y0152215D01*
X0226851Y0152365D01*
X0226821Y0152516D01*
X0226796Y0152667D01*
X0226774Y0152818D01*
X0226756Y0152971D01*
X0226742Y0153123D01*
X0226732Y0153276D01*
X0226726Y0153430D01*
X0226724Y0153583D01*
M02*
