%
M48
M72
T01C0.02756
T02C0.03150
T03C0.03200
T04C0.03543
T05C0.03937
T06C0.04000
T07C0.04400
T08C0.05906
T09C0.11811
%
T01
X9401Y58150
X25465Y73898
X36350Y83315
X36350Y115409
X135701Y34528
X155386Y13291
T02
X122394Y65945
X122394Y75945
X122394Y85945
X122394Y95945
X122394Y105945
X122394Y115945
X122394Y125945
X122394Y135945
X122394Y145945
X122394Y155945
X122394Y165945
X122394Y175945
X132685Y165933
X122394Y185945
X122394Y195945
X122394Y205945
X122394Y215945
X122394Y225945
X122394Y235945
X122394Y245945
X122394Y255945
X112268Y263260
X122622Y270457
X95724Y270429
X76646Y262874
X62394Y255945
X62394Y245945
X62394Y235945
X62394Y225945
X62394Y215945
X62394Y205945
X62394Y195945
X62394Y185945
X62394Y175945
X62394Y165945
X62394Y155945
X62394Y145945
X62394Y135945
X62394Y125945
X62394Y115945
X62394Y105945
X62394Y95945
X62394Y85945
X62394Y75945
X62394Y65945
X36272Y145429
X9401Y144760
X9676Y195944
X36248Y195390
X149126Y136035
X188098Y135902
X175709Y206362
T03
X95500Y196453
X85500Y196453
X75500Y196453
X17039Y211016
X17039Y221016
X16870Y253035
X16870Y263035
X19453Y279220
X29453Y279220
X9453Y279220
X16874Y170850
X16874Y160850
X147512Y57902
X147512Y47902
X147512Y37902
T04
X108236Y34594
X108236Y25933
X108236Y17272
X95638Y17272
X95638Y25933
X95638Y34594
X95638Y47193
X108236Y47193
X145795Y85748
X145795Y115748
X75492Y216228
X75492Y246228
X47039Y249768
X47748Y236024
X17748Y236024
X47039Y279768
X46858Y186551
X16858Y186551
X17035Y134661
X47035Y134661
T05
X77474Y142298
X88012Y142566
X97743Y142566
X107881Y142298
X148881Y204953
X148684Y215191
X148769Y225019
X148926Y235176
X148729Y245289
X149123Y255164
X227902Y254987
X227902Y245020
X228099Y235020
X228099Y224907
X228099Y214795
X228020Y204827
X97783Y67258
X88012Y67447
T06
X22996Y17496
X32996Y17496
X42996Y17496
X52996Y17496
X52374Y43465
X42374Y43465
X32374Y43465
X22374Y43465
X25354Y85146
X25354Y95146
X25354Y105146
X25354Y115146
X36075Y155720
X36075Y165720
X36075Y175720
X36067Y206024
X36067Y216024
X36067Y226024
X75303Y280791
X85303Y280791
X95303Y280791
T07
X130531Y13291
X140531Y13291
T08
X168630Y15583
X236630Y15583
X236630Y171583
X168630Y171583
T09
X232630Y153583
X172630Y36583
M30
