G75*
%MOIN*%
%OFA0B0*%
%FSLAX25Y25*%
%IPPOS*%
%LPD*%
%AMOC8*
5,1,8,0,0,1.08239X$1,22.5*
%
%ADD10C,0.05600*%
%ADD11C,0.07400*%
%ADD12C,0.07400*%
%ADD13OC8,0.05937*%
%ADD14C,0.05600*%
%ADD15C,0.04400*%
%ADD16R,0.09843X0.09843*%
%ADD17OC8,0.05200*%
%ADD18R,0.07400X0.07400*%
%ADD19C,0.06600*%
%ADD20C,0.04724*%
%ADD21C,0.07874*%
%ADD22C,0.09843*%
D10*
X0024263Y0024049D02*
X0029863Y0024049D01*
X0029863Y0034049D02*
X0024263Y0034049D01*
X0024263Y0044049D02*
X0029863Y0044049D01*
X0029863Y0054049D02*
X0024263Y0054049D01*
X0077688Y0058616D02*
X0083288Y0058616D01*
X0083288Y0048616D02*
X0077688Y0048616D01*
D11*
X0248409Y0039793D02*
X0255809Y0039793D01*
X0341957Y0203078D02*
X0341957Y0210478D01*
X0351957Y0210478D02*
X0351957Y0203078D01*
X0226823Y0255707D02*
X0219423Y0255707D01*
X0087063Y0222749D02*
X0087063Y0215349D01*
X0077063Y0215349D02*
X0077063Y0222749D01*
X0067063Y0222749D02*
X0067063Y0215349D01*
X0057063Y0215349D02*
X0057063Y0222749D01*
X0047063Y0222749D02*
X0047063Y0215349D01*
X0037063Y0215349D02*
X0037063Y0222749D01*
X0027063Y0222749D02*
X0027063Y0215349D01*
D12*
X0064740Y0250703D03*
X0074740Y0250703D03*
X0084740Y0250703D03*
X0094740Y0250703D03*
X0253224Y0209207D03*
X0263224Y0209207D03*
X0273224Y0209207D03*
X0283224Y0209207D03*
X0278224Y0219207D03*
X0268224Y0219207D03*
X0258224Y0219207D03*
X0316563Y0222537D03*
X0316563Y0252537D03*
X0371752Y0252183D03*
X0371752Y0222183D03*
X0378205Y0205585D03*
X0378205Y0195585D03*
X0286000Y0120427D03*
X0276000Y0120427D03*
X0266000Y0120427D03*
X0256000Y0120427D03*
X0266000Y0097986D03*
X0276000Y0097986D03*
X0246043Y0084356D03*
X0246043Y0054356D03*
X0170252Y0043805D03*
X0160252Y0043447D03*
X0150252Y0043801D03*
X0150252Y0073801D03*
X0160252Y0073447D03*
X0170252Y0073805D03*
X0097063Y0073419D03*
X0097063Y0083419D03*
X0097063Y0093848D03*
X0067063Y0093848D03*
X0067063Y0083419D03*
X0067063Y0073419D03*
D13*
X0137063Y0074049D03*
X0137063Y0064049D03*
X0137063Y0054049D03*
X0137063Y0044049D03*
X0137063Y0084049D03*
X0137063Y0094049D03*
X0137063Y0104049D03*
X0137063Y0114049D03*
X0137063Y0124049D03*
X0137063Y0134049D03*
X0137063Y0144049D03*
X0137063Y0154049D03*
X0137063Y0164049D03*
X0137063Y0174049D03*
X0137063Y0184049D03*
X0137063Y0194049D03*
X0137063Y0204049D03*
X0137063Y0214049D03*
X0137063Y0224049D03*
X0137063Y0234049D03*
X0227063Y0234049D03*
X0227063Y0224049D03*
X0227063Y0214049D03*
X0227063Y0204049D03*
X0227063Y0194049D03*
X0227063Y0184049D03*
X0227063Y0174049D03*
X0227063Y0164049D03*
X0227063Y0154049D03*
X0227063Y0144049D03*
X0227063Y0134049D03*
X0227063Y0124049D03*
X0227063Y0114049D03*
X0227063Y0104049D03*
X0227063Y0094049D03*
X0227063Y0084049D03*
X0227063Y0074049D03*
X0227063Y0064049D03*
X0227063Y0054049D03*
X0227063Y0044049D03*
D14*
X0280094Y0045860D03*
X0292693Y0045860D03*
X0292693Y0058459D03*
X0292693Y0067120D03*
X0292693Y0075782D03*
X0280094Y0075782D03*
X0280094Y0067120D03*
X0280094Y0058459D03*
D15*
X0106866Y0054285D03*
X0106866Y0044285D03*
X0106866Y0034285D03*
D16*
X0308772Y0023096D03*
X0376772Y0023096D03*
X0376772Y0179096D03*
X0308772Y0179096D03*
D17*
X0265437Y0074152D03*
X0257937Y0069152D03*
X0265437Y0064152D03*
D18*
X0288224Y0219207D03*
D19*
X0195291Y0127389D02*
X0195291Y0120789D01*
X0185291Y0120789D02*
X0185291Y0127389D01*
X0175291Y0127389D02*
X0175291Y0120789D01*
D20*
X0008008Y0120782D02*
X0008008Y0011734D01*
X0212795Y0011734D01*
X0212898Y0011837D01*
X0213091Y0012030D01*
X0378205Y0012030D01*
X0378205Y0023096D01*
X0376772Y0023096D01*
X0341732Y0023238D02*
X0337472Y0023238D01*
X0337473Y0023238D02*
X0337471Y0023216D01*
X0337466Y0023194D01*
X0337458Y0023174D01*
X0337446Y0023155D01*
X0337431Y0023138D01*
X0337414Y0023123D01*
X0337395Y0023111D01*
X0337375Y0023103D01*
X0337353Y0023098D01*
X0337331Y0023096D01*
X0308772Y0023096D01*
X0308772Y0020935D01*
X0186346Y0020935D01*
X0185295Y0020868D01*
X0185657Y0020868D01*
X0106551Y0020939D01*
X0106551Y0033971D01*
X0106866Y0034285D01*
X0106866Y0044285D02*
X0080291Y0044285D01*
X0080488Y0044492D01*
X0080488Y0048616D01*
X0080488Y0058616D02*
X0080488Y0073419D01*
X0097063Y0073419D01*
X0137063Y0073419D01*
X0137063Y0074049D01*
X0150252Y0074049D01*
X0150252Y0073801D01*
X0160252Y0073447D02*
X0160252Y0084049D01*
X0137063Y0084049D01*
X0137063Y0083419D01*
X0097063Y0083419D01*
X0097063Y0093848D02*
X0137063Y0093848D01*
X0137063Y0094049D01*
X0170252Y0094049D01*
X0170252Y0073805D01*
X0170252Y0043805D02*
X0183866Y0043805D01*
X0185291Y0045230D01*
X0185291Y0038104D01*
X0185291Y0045230D02*
X0185291Y0124089D01*
X0185291Y0148341D01*
X0169543Y0148341D01*
X0169543Y0234049D01*
X0137063Y0234049D01*
X0137063Y0224049D02*
X0155606Y0224049D01*
X0155606Y0124089D01*
X0175291Y0124089D01*
X0185291Y0124089D02*
X0185376Y0124004D01*
X0195291Y0124089D02*
X0201039Y0124089D01*
X0201039Y0250703D01*
X0094740Y0250703D01*
X0084740Y0250703D02*
X0084740Y0238892D01*
X0114425Y0238892D01*
X0114425Y0203459D01*
X0099732Y0203848D02*
X0099732Y0231018D01*
X0075055Y0231018D01*
X0075055Y0250703D01*
X0074740Y0250703D01*
X0064740Y0250703D02*
X0064740Y0234049D01*
X0037063Y0234049D01*
X0037063Y0219049D01*
X0037063Y0108971D01*
X0016000Y0108971D01*
X0016000Y0024049D01*
X0027063Y0024049D01*
X0027063Y0020939D01*
X0106551Y0020939D01*
X0122299Y0030230D02*
X0122299Y0054285D01*
X0106866Y0054285D01*
X0122299Y0030230D02*
X0212850Y0030230D01*
X0212850Y0105034D01*
X0197102Y0105034D01*
X0196917Y0105219D01*
X0194138Y0105219D01*
X0176315Y0104974D02*
X0176256Y0105034D01*
X0155606Y0105034D01*
X0155606Y0124089D01*
X0137063Y0134049D02*
X0087378Y0134049D01*
X0087378Y0154049D01*
X0099732Y0154049D02*
X0099732Y0153896D01*
X0099732Y0154049D02*
X0137063Y0154049D01*
X0137063Y0144404D02*
X0114425Y0144404D01*
X0137063Y0144404D02*
X0137063Y0144049D01*
X0137063Y0164049D02*
X0137063Y0164089D01*
X0047063Y0164089D01*
X0047063Y0219049D01*
X0057063Y0219049D02*
X0057063Y0184049D01*
X0137063Y0184049D01*
X0137063Y0174049D02*
X0077063Y0174049D01*
X0067063Y0193884D02*
X0137063Y0193884D01*
X0137063Y0194049D01*
X0087378Y0204049D02*
X0087063Y0204049D01*
X0087063Y0219049D01*
X0077063Y0219049D02*
X0077063Y0204049D01*
X0067063Y0193884D02*
X0067063Y0219049D01*
X0027063Y0219049D02*
X0027063Y0120782D01*
X0008008Y0120782D01*
X0027063Y0093848D02*
X0027063Y0054049D01*
X0027063Y0044049D02*
X0041154Y0044049D01*
X0041154Y0083069D01*
X0067063Y0083069D01*
X0067063Y0083419D01*
X0067181Y0073537D02*
X0055370Y0073537D01*
X0055370Y0034049D01*
X0027063Y0034049D01*
X0067063Y0073419D02*
X0067181Y0073419D01*
X0067181Y0073537D01*
X0067063Y0093848D02*
X0027063Y0093848D01*
X0150252Y0043801D02*
X0159898Y0043801D01*
X0160252Y0043447D01*
X0169894Y0043447D01*
X0170252Y0043805D01*
X0212850Y0030230D02*
X0292362Y0030230D01*
X0292362Y0045860D01*
X0292693Y0045860D01*
X0280094Y0045860D02*
X0265437Y0045860D01*
X0265437Y0064152D01*
X0257937Y0069152D02*
X0246126Y0069152D01*
X0246126Y0084274D01*
X0246043Y0084356D01*
X0255921Y0083667D02*
X0265437Y0074152D01*
X0280094Y0075782D02*
X0292693Y0075782D01*
X0286467Y0075822D01*
X0286000Y0120427D01*
X0276000Y0120427D02*
X0276000Y0097986D01*
X0266000Y0097986D02*
X0266000Y0120427D01*
X0256000Y0120427D02*
X0256000Y0132593D01*
X0341825Y0132593D01*
X0341825Y0076522D01*
X0355488Y0067120D02*
X0292693Y0067120D01*
X0280094Y0067120D01*
X0255921Y0083667D02*
X0255921Y0132593D01*
X0256000Y0132593D01*
X0244346Y0124049D02*
X0244346Y0142207D01*
X0329417Y0142207D01*
X0329417Y0163260D01*
X0316862Y0163313D02*
X0316862Y0152564D01*
X0316957Y0152108D01*
X0236472Y0152108D01*
X0236472Y0134049D01*
X0227063Y0134049D01*
X0227063Y0124049D02*
X0244346Y0124049D01*
X0227063Y0164049D02*
X0227063Y0164089D01*
X0287654Y0164089D01*
X0287654Y0173463D01*
X0287134Y0173982D01*
X0295528Y0184049D02*
X0299465Y0187711D01*
X0303402Y0191648D01*
X0303402Y0231404D01*
X0278224Y0231404D01*
X0278224Y0219207D01*
X0288224Y0219207D02*
X0294311Y0219254D01*
X0294311Y0202656D01*
X0287189Y0195534D01*
X0283224Y0206648D02*
X0273669Y0197093D01*
X0273669Y0196455D01*
X0273091Y0195876D01*
X0263224Y0194049D02*
X0263224Y0209207D01*
X0263224Y0194049D02*
X0227063Y0194049D01*
X0227063Y0184049D02*
X0295528Y0184049D01*
X0308772Y0179096D02*
X0341551Y0179096D01*
X0341825Y0179096D02*
X0341825Y0132593D01*
X0341957Y0179096D02*
X0341825Y0179096D01*
X0341957Y0179096D02*
X0341957Y0206778D01*
X0351957Y0206778D02*
X0355488Y0206778D01*
X0355488Y0179096D01*
X0355488Y0067120D01*
X0341732Y0057974D02*
X0341732Y0023238D01*
X0248409Y0039793D02*
X0248409Y0044049D01*
X0227063Y0044049D01*
X0227063Y0054049D02*
X0246043Y0054049D01*
X0246043Y0054356D01*
X0227063Y0174049D02*
X0273236Y0174049D01*
X0273236Y0174215D01*
X0316551Y0191974D02*
X0316551Y0222537D01*
X0316551Y0238892D01*
X0380232Y0238892D01*
X0380232Y0207612D01*
X0378205Y0205585D01*
X0378205Y0195585D02*
X0366394Y0195585D01*
X0366394Y0222183D01*
X0371752Y0222183D01*
X0371752Y0222817D01*
X0329441Y0222817D01*
X0329441Y0192211D01*
X0329386Y0192156D01*
X0355488Y0179096D02*
X0376772Y0179096D01*
X0316563Y0222537D02*
X0316551Y0222537D01*
X0283224Y0209207D02*
X0283224Y0206648D01*
X0227063Y0234049D02*
X0226437Y0234675D01*
X0226823Y0255707D01*
X0226437Y0257648D01*
X0316563Y0257648D01*
X0316563Y0252537D01*
X0371398Y0252537D01*
X0371752Y0252183D01*
X0027063Y0219207D02*
X0027063Y0219049D01*
D21*
X0077063Y0204049D03*
X0087378Y0204049D03*
X0099732Y0203848D03*
X0114425Y0203459D03*
X0077063Y0174049D03*
X0087378Y0154049D03*
X0099732Y0153896D03*
X0114425Y0144404D03*
X0176315Y0104974D03*
X0194138Y0105219D03*
X0185291Y0038104D03*
X0185295Y0020868D03*
X0212898Y0011837D03*
X0212850Y0030230D03*
X0341732Y0057974D03*
X0341825Y0076522D03*
X0287134Y0173982D03*
X0273236Y0174215D03*
X0273091Y0195876D03*
X0287189Y0195534D03*
D22*
X0316551Y0191974D03*
X0329386Y0192156D03*
X0329417Y0163260D03*
X0316862Y0163313D03*
M02*
