%
M48
M72
T01C0.01575
T02C0.01969
T03C0.02400
T04C0.03150
T05C0.03200
T06C0.03543
T07C0.03600
T08C0.03937
T09C0.04000
T10C0.04400
T11C0.05906
T12C0.11811
T13C0.12598
T14C0.13000
%
T01
X176315Y104974
X194138Y105219
X185291Y38104
X341732Y57974
X341825Y76522
X329417Y163260
X316862Y163313
X287134Y173982
X316551Y191974
X329386Y192156
T02
X287189Y195534
X273091Y195876
X273236Y174215
X114425Y203459
X99732Y203848
X99732Y153896
X114425Y144404
X185295Y20868
T03
X106866Y34285
X106866Y44285
X106866Y54285
T04
X87378Y154049
X77063Y174049
X77063Y204049
X87378Y204049
T05
X265437Y74152
X257937Y69152
X265437Y64152
T06
X280094Y67120
X280094Y58459
X292693Y58459
X292693Y67120
X292693Y75782
X280094Y75782
X246043Y84356
X246043Y54356
X280094Y45860
X292693Y45860
X212850Y30230
X212898Y11837
X170252Y43805
X160252Y43447
X150252Y43801
X150252Y73801
X160252Y73447
X170252Y73805
X97063Y73419
X97063Y83419
X97063Y93848
X67063Y93848
X67063Y83419
X67063Y73419
X316563Y222537
X316563Y252537
X371752Y252183
X371752Y222183
T07
X27063Y24049
X27063Y34049
X27063Y44049
X27063Y54049
X80488Y58616
X80488Y48616
T08
X137063Y44049
X137063Y54049
X137063Y64049
X137063Y74049
X137063Y84049
X137063Y94049
X137063Y104049
X137063Y114049
X137063Y124049
X137063Y134049
X137063Y144049
X137063Y154049
X137063Y164049
X137063Y174049
X137063Y184049
X137063Y194049
X137063Y204049
X137063Y214049
X137063Y224049
X137063Y234049
X227063Y234049
X227063Y224049
X227063Y214049
X227063Y204049
X227063Y194049
X227063Y184049
X227063Y174049
X227063Y164049
X227063Y154049
X227063Y144049
X227063Y134049
X227063Y124049
X227063Y114049
X227063Y104049
X227063Y94049
X227063Y84049
X227063Y74049
X227063Y64049
X227063Y54049
X227063Y44049
X253224Y209207
X263224Y209207
X273224Y209207
X283224Y209207
X278224Y219207
X288224Y219207
X268224Y219207
X258224Y219207
T09
X378205Y205585
X378205Y195585
X286000Y120427
X276000Y120427
X266000Y120427
X256000Y120427
X266000Y97986
X276000Y97986
X87063Y219049
X77063Y219049
X67063Y219049
X57063Y219049
X47063Y219049
X37063Y219049
X27063Y219049
X64740Y250703
X74740Y250703
X84740Y250703
X94740Y250703
T10
X226823Y255707
X341957Y206778
X351957Y206778
X195291Y124089
X185291Y124089
X175291Y124089
X248409Y39793
T11
X308772Y23096
X376772Y23096
X376772Y179096
X308772Y179096
T12
X372772Y158096
X312772Y41096
T13
X293224Y244207
X248224Y244207
T14
X185291Y183089
M30
