G75*
%MOIN*%
%OFA0B0*%
%FSLAX25Y25*%
%IPPOS*%
%LPD*%
%AMOC8*
5,1,8,0,0,1.08239X$1,22.5*
%
%ADD10C,0.00000*%
D10*
X0001000Y0003734D02*
X0001000Y0264010D01*
X0386630Y0264010D01*
X0386630Y0003734D01*
X0001000Y0003734D01*
X0178791Y0183089D02*
X0178793Y0183250D01*
X0178799Y0183410D01*
X0178809Y0183571D01*
X0178823Y0183731D01*
X0178841Y0183891D01*
X0178862Y0184050D01*
X0178888Y0184209D01*
X0178918Y0184367D01*
X0178951Y0184524D01*
X0178989Y0184681D01*
X0179030Y0184836D01*
X0179075Y0184990D01*
X0179124Y0185143D01*
X0179177Y0185295D01*
X0179233Y0185446D01*
X0179294Y0185595D01*
X0179357Y0185743D01*
X0179425Y0185889D01*
X0179496Y0186033D01*
X0179570Y0186175D01*
X0179648Y0186316D01*
X0179730Y0186454D01*
X0179815Y0186591D01*
X0179903Y0186725D01*
X0179995Y0186857D01*
X0180090Y0186987D01*
X0180188Y0187115D01*
X0180289Y0187240D01*
X0180393Y0187362D01*
X0180500Y0187482D01*
X0180610Y0187599D01*
X0180723Y0187714D01*
X0180839Y0187825D01*
X0180958Y0187934D01*
X0181079Y0188039D01*
X0181203Y0188142D01*
X0181329Y0188242D01*
X0181457Y0188338D01*
X0181588Y0188431D01*
X0181722Y0188521D01*
X0181857Y0188608D01*
X0181995Y0188691D01*
X0182134Y0188771D01*
X0182276Y0188847D01*
X0182419Y0188920D01*
X0182564Y0188989D01*
X0182711Y0189055D01*
X0182859Y0189117D01*
X0183009Y0189175D01*
X0183160Y0189230D01*
X0183313Y0189281D01*
X0183467Y0189328D01*
X0183622Y0189371D01*
X0183778Y0189410D01*
X0183934Y0189446D01*
X0184092Y0189477D01*
X0184250Y0189505D01*
X0184409Y0189529D01*
X0184569Y0189549D01*
X0184729Y0189565D01*
X0184889Y0189577D01*
X0185050Y0189585D01*
X0185211Y0189589D01*
X0185371Y0189589D01*
X0185532Y0189585D01*
X0185693Y0189577D01*
X0185853Y0189565D01*
X0186013Y0189549D01*
X0186173Y0189529D01*
X0186332Y0189505D01*
X0186490Y0189477D01*
X0186648Y0189446D01*
X0186804Y0189410D01*
X0186960Y0189371D01*
X0187115Y0189328D01*
X0187269Y0189281D01*
X0187422Y0189230D01*
X0187573Y0189175D01*
X0187723Y0189117D01*
X0187871Y0189055D01*
X0188018Y0188989D01*
X0188163Y0188920D01*
X0188306Y0188847D01*
X0188448Y0188771D01*
X0188587Y0188691D01*
X0188725Y0188608D01*
X0188860Y0188521D01*
X0188994Y0188431D01*
X0189125Y0188338D01*
X0189253Y0188242D01*
X0189379Y0188142D01*
X0189503Y0188039D01*
X0189624Y0187934D01*
X0189743Y0187825D01*
X0189859Y0187714D01*
X0189972Y0187599D01*
X0190082Y0187482D01*
X0190189Y0187362D01*
X0190293Y0187240D01*
X0190394Y0187115D01*
X0190492Y0186987D01*
X0190587Y0186857D01*
X0190679Y0186725D01*
X0190767Y0186591D01*
X0190852Y0186454D01*
X0190934Y0186316D01*
X0191012Y0186175D01*
X0191086Y0186033D01*
X0191157Y0185889D01*
X0191225Y0185743D01*
X0191288Y0185595D01*
X0191349Y0185446D01*
X0191405Y0185295D01*
X0191458Y0185143D01*
X0191507Y0184990D01*
X0191552Y0184836D01*
X0191593Y0184681D01*
X0191631Y0184524D01*
X0191664Y0184367D01*
X0191694Y0184209D01*
X0191720Y0184050D01*
X0191741Y0183891D01*
X0191759Y0183731D01*
X0191773Y0183571D01*
X0191783Y0183410D01*
X0191789Y0183250D01*
X0191791Y0183089D01*
X0191789Y0182928D01*
X0191783Y0182768D01*
X0191773Y0182607D01*
X0191759Y0182447D01*
X0191741Y0182287D01*
X0191720Y0182128D01*
X0191694Y0181969D01*
X0191664Y0181811D01*
X0191631Y0181654D01*
X0191593Y0181497D01*
X0191552Y0181342D01*
X0191507Y0181188D01*
X0191458Y0181035D01*
X0191405Y0180883D01*
X0191349Y0180732D01*
X0191288Y0180583D01*
X0191225Y0180435D01*
X0191157Y0180289D01*
X0191086Y0180145D01*
X0191012Y0180003D01*
X0190934Y0179862D01*
X0190852Y0179724D01*
X0190767Y0179587D01*
X0190679Y0179453D01*
X0190587Y0179321D01*
X0190492Y0179191D01*
X0190394Y0179063D01*
X0190293Y0178938D01*
X0190189Y0178816D01*
X0190082Y0178696D01*
X0189972Y0178579D01*
X0189859Y0178464D01*
X0189743Y0178353D01*
X0189624Y0178244D01*
X0189503Y0178139D01*
X0189379Y0178036D01*
X0189253Y0177936D01*
X0189125Y0177840D01*
X0188994Y0177747D01*
X0188860Y0177657D01*
X0188725Y0177570D01*
X0188587Y0177487D01*
X0188448Y0177407D01*
X0188306Y0177331D01*
X0188163Y0177258D01*
X0188018Y0177189D01*
X0187871Y0177123D01*
X0187723Y0177061D01*
X0187573Y0177003D01*
X0187422Y0176948D01*
X0187269Y0176897D01*
X0187115Y0176850D01*
X0186960Y0176807D01*
X0186804Y0176768D01*
X0186648Y0176732D01*
X0186490Y0176701D01*
X0186332Y0176673D01*
X0186173Y0176649D01*
X0186013Y0176629D01*
X0185853Y0176613D01*
X0185693Y0176601D01*
X0185532Y0176593D01*
X0185371Y0176589D01*
X0185211Y0176589D01*
X0185050Y0176593D01*
X0184889Y0176601D01*
X0184729Y0176613D01*
X0184569Y0176629D01*
X0184409Y0176649D01*
X0184250Y0176673D01*
X0184092Y0176701D01*
X0183934Y0176732D01*
X0183778Y0176768D01*
X0183622Y0176807D01*
X0183467Y0176850D01*
X0183313Y0176897D01*
X0183160Y0176948D01*
X0183009Y0177003D01*
X0182859Y0177061D01*
X0182711Y0177123D01*
X0182564Y0177189D01*
X0182419Y0177258D01*
X0182276Y0177331D01*
X0182134Y0177407D01*
X0181995Y0177487D01*
X0181857Y0177570D01*
X0181722Y0177657D01*
X0181588Y0177747D01*
X0181457Y0177840D01*
X0181329Y0177936D01*
X0181203Y0178036D01*
X0181079Y0178139D01*
X0180958Y0178244D01*
X0180839Y0178353D01*
X0180723Y0178464D01*
X0180610Y0178579D01*
X0180500Y0178696D01*
X0180393Y0178816D01*
X0180289Y0178938D01*
X0180188Y0179063D01*
X0180090Y0179191D01*
X0179995Y0179321D01*
X0179903Y0179453D01*
X0179815Y0179587D01*
X0179730Y0179724D01*
X0179648Y0179862D01*
X0179570Y0180003D01*
X0179496Y0180145D01*
X0179425Y0180289D01*
X0179357Y0180435D01*
X0179294Y0180583D01*
X0179233Y0180732D01*
X0179177Y0180883D01*
X0179124Y0181035D01*
X0179075Y0181188D01*
X0179030Y0181342D01*
X0178989Y0181497D01*
X0178951Y0181654D01*
X0178918Y0181811D01*
X0178888Y0181969D01*
X0178862Y0182128D01*
X0178841Y0182287D01*
X0178823Y0182447D01*
X0178809Y0182607D01*
X0178799Y0182768D01*
X0178793Y0182928D01*
X0178791Y0183089D01*
X0241925Y0244207D02*
X0241927Y0244365D01*
X0241933Y0244523D01*
X0241943Y0244681D01*
X0241957Y0244839D01*
X0241975Y0244996D01*
X0241996Y0245153D01*
X0242022Y0245309D01*
X0242052Y0245465D01*
X0242085Y0245620D01*
X0242123Y0245773D01*
X0242164Y0245926D01*
X0242209Y0246078D01*
X0242258Y0246229D01*
X0242311Y0246378D01*
X0242367Y0246526D01*
X0242427Y0246672D01*
X0242491Y0246817D01*
X0242559Y0246960D01*
X0242630Y0247102D01*
X0242704Y0247242D01*
X0242782Y0247379D01*
X0242864Y0247515D01*
X0242948Y0247649D01*
X0243037Y0247780D01*
X0243128Y0247909D01*
X0243223Y0248036D01*
X0243320Y0248161D01*
X0243421Y0248283D01*
X0243525Y0248402D01*
X0243632Y0248519D01*
X0243742Y0248633D01*
X0243855Y0248744D01*
X0243970Y0248853D01*
X0244088Y0248958D01*
X0244209Y0249060D01*
X0244332Y0249160D01*
X0244458Y0249256D01*
X0244586Y0249349D01*
X0244716Y0249439D01*
X0244849Y0249525D01*
X0244984Y0249609D01*
X0245120Y0249688D01*
X0245259Y0249765D01*
X0245400Y0249837D01*
X0245542Y0249907D01*
X0245686Y0249972D01*
X0245832Y0250034D01*
X0245979Y0250092D01*
X0246128Y0250147D01*
X0246278Y0250198D01*
X0246429Y0250245D01*
X0246581Y0250288D01*
X0246734Y0250327D01*
X0246889Y0250363D01*
X0247044Y0250394D01*
X0247200Y0250422D01*
X0247356Y0250446D01*
X0247513Y0250466D01*
X0247671Y0250482D01*
X0247828Y0250494D01*
X0247987Y0250502D01*
X0248145Y0250506D01*
X0248303Y0250506D01*
X0248461Y0250502D01*
X0248620Y0250494D01*
X0248777Y0250482D01*
X0248935Y0250466D01*
X0249092Y0250446D01*
X0249248Y0250422D01*
X0249404Y0250394D01*
X0249559Y0250363D01*
X0249714Y0250327D01*
X0249867Y0250288D01*
X0250019Y0250245D01*
X0250170Y0250198D01*
X0250320Y0250147D01*
X0250469Y0250092D01*
X0250616Y0250034D01*
X0250762Y0249972D01*
X0250906Y0249907D01*
X0251048Y0249837D01*
X0251189Y0249765D01*
X0251328Y0249688D01*
X0251464Y0249609D01*
X0251599Y0249525D01*
X0251732Y0249439D01*
X0251862Y0249349D01*
X0251990Y0249256D01*
X0252116Y0249160D01*
X0252239Y0249060D01*
X0252360Y0248958D01*
X0252478Y0248853D01*
X0252593Y0248744D01*
X0252706Y0248633D01*
X0252816Y0248519D01*
X0252923Y0248402D01*
X0253027Y0248283D01*
X0253128Y0248161D01*
X0253225Y0248036D01*
X0253320Y0247909D01*
X0253411Y0247780D01*
X0253500Y0247649D01*
X0253584Y0247515D01*
X0253666Y0247379D01*
X0253744Y0247242D01*
X0253818Y0247102D01*
X0253889Y0246960D01*
X0253957Y0246817D01*
X0254021Y0246672D01*
X0254081Y0246526D01*
X0254137Y0246378D01*
X0254190Y0246229D01*
X0254239Y0246078D01*
X0254284Y0245926D01*
X0254325Y0245773D01*
X0254363Y0245620D01*
X0254396Y0245465D01*
X0254426Y0245309D01*
X0254452Y0245153D01*
X0254473Y0244996D01*
X0254491Y0244839D01*
X0254505Y0244681D01*
X0254515Y0244523D01*
X0254521Y0244365D01*
X0254523Y0244207D01*
X0254521Y0244049D01*
X0254515Y0243891D01*
X0254505Y0243733D01*
X0254491Y0243575D01*
X0254473Y0243418D01*
X0254452Y0243261D01*
X0254426Y0243105D01*
X0254396Y0242949D01*
X0254363Y0242794D01*
X0254325Y0242641D01*
X0254284Y0242488D01*
X0254239Y0242336D01*
X0254190Y0242185D01*
X0254137Y0242036D01*
X0254081Y0241888D01*
X0254021Y0241742D01*
X0253957Y0241597D01*
X0253889Y0241454D01*
X0253818Y0241312D01*
X0253744Y0241172D01*
X0253666Y0241035D01*
X0253584Y0240899D01*
X0253500Y0240765D01*
X0253411Y0240634D01*
X0253320Y0240505D01*
X0253225Y0240378D01*
X0253128Y0240253D01*
X0253027Y0240131D01*
X0252923Y0240012D01*
X0252816Y0239895D01*
X0252706Y0239781D01*
X0252593Y0239670D01*
X0252478Y0239561D01*
X0252360Y0239456D01*
X0252239Y0239354D01*
X0252116Y0239254D01*
X0251990Y0239158D01*
X0251862Y0239065D01*
X0251732Y0238975D01*
X0251599Y0238889D01*
X0251464Y0238805D01*
X0251328Y0238726D01*
X0251189Y0238649D01*
X0251048Y0238577D01*
X0250906Y0238507D01*
X0250762Y0238442D01*
X0250616Y0238380D01*
X0250469Y0238322D01*
X0250320Y0238267D01*
X0250170Y0238216D01*
X0250019Y0238169D01*
X0249867Y0238126D01*
X0249714Y0238087D01*
X0249559Y0238051D01*
X0249404Y0238020D01*
X0249248Y0237992D01*
X0249092Y0237968D01*
X0248935Y0237948D01*
X0248777Y0237932D01*
X0248620Y0237920D01*
X0248461Y0237912D01*
X0248303Y0237908D01*
X0248145Y0237908D01*
X0247987Y0237912D01*
X0247828Y0237920D01*
X0247671Y0237932D01*
X0247513Y0237948D01*
X0247356Y0237968D01*
X0247200Y0237992D01*
X0247044Y0238020D01*
X0246889Y0238051D01*
X0246734Y0238087D01*
X0246581Y0238126D01*
X0246429Y0238169D01*
X0246278Y0238216D01*
X0246128Y0238267D01*
X0245979Y0238322D01*
X0245832Y0238380D01*
X0245686Y0238442D01*
X0245542Y0238507D01*
X0245400Y0238577D01*
X0245259Y0238649D01*
X0245120Y0238726D01*
X0244984Y0238805D01*
X0244849Y0238889D01*
X0244716Y0238975D01*
X0244586Y0239065D01*
X0244458Y0239158D01*
X0244332Y0239254D01*
X0244209Y0239354D01*
X0244088Y0239456D01*
X0243970Y0239561D01*
X0243855Y0239670D01*
X0243742Y0239781D01*
X0243632Y0239895D01*
X0243525Y0240012D01*
X0243421Y0240131D01*
X0243320Y0240253D01*
X0243223Y0240378D01*
X0243128Y0240505D01*
X0243037Y0240634D01*
X0242948Y0240765D01*
X0242864Y0240899D01*
X0242782Y0241035D01*
X0242704Y0241172D01*
X0242630Y0241312D01*
X0242559Y0241454D01*
X0242491Y0241597D01*
X0242427Y0241742D01*
X0242367Y0241888D01*
X0242311Y0242036D01*
X0242258Y0242185D01*
X0242209Y0242336D01*
X0242164Y0242488D01*
X0242123Y0242641D01*
X0242085Y0242794D01*
X0242052Y0242949D01*
X0242022Y0243105D01*
X0241996Y0243261D01*
X0241975Y0243418D01*
X0241957Y0243575D01*
X0241943Y0243733D01*
X0241933Y0243891D01*
X0241927Y0244049D01*
X0241925Y0244207D01*
X0286925Y0244207D02*
X0286927Y0244365D01*
X0286933Y0244523D01*
X0286943Y0244681D01*
X0286957Y0244839D01*
X0286975Y0244996D01*
X0286996Y0245153D01*
X0287022Y0245309D01*
X0287052Y0245465D01*
X0287085Y0245620D01*
X0287123Y0245773D01*
X0287164Y0245926D01*
X0287209Y0246078D01*
X0287258Y0246229D01*
X0287311Y0246378D01*
X0287367Y0246526D01*
X0287427Y0246672D01*
X0287491Y0246817D01*
X0287559Y0246960D01*
X0287630Y0247102D01*
X0287704Y0247242D01*
X0287782Y0247379D01*
X0287864Y0247515D01*
X0287948Y0247649D01*
X0288037Y0247780D01*
X0288128Y0247909D01*
X0288223Y0248036D01*
X0288320Y0248161D01*
X0288421Y0248283D01*
X0288525Y0248402D01*
X0288632Y0248519D01*
X0288742Y0248633D01*
X0288855Y0248744D01*
X0288970Y0248853D01*
X0289088Y0248958D01*
X0289209Y0249060D01*
X0289332Y0249160D01*
X0289458Y0249256D01*
X0289586Y0249349D01*
X0289716Y0249439D01*
X0289849Y0249525D01*
X0289984Y0249609D01*
X0290120Y0249688D01*
X0290259Y0249765D01*
X0290400Y0249837D01*
X0290542Y0249907D01*
X0290686Y0249972D01*
X0290832Y0250034D01*
X0290979Y0250092D01*
X0291128Y0250147D01*
X0291278Y0250198D01*
X0291429Y0250245D01*
X0291581Y0250288D01*
X0291734Y0250327D01*
X0291889Y0250363D01*
X0292044Y0250394D01*
X0292200Y0250422D01*
X0292356Y0250446D01*
X0292513Y0250466D01*
X0292671Y0250482D01*
X0292828Y0250494D01*
X0292987Y0250502D01*
X0293145Y0250506D01*
X0293303Y0250506D01*
X0293461Y0250502D01*
X0293620Y0250494D01*
X0293777Y0250482D01*
X0293935Y0250466D01*
X0294092Y0250446D01*
X0294248Y0250422D01*
X0294404Y0250394D01*
X0294559Y0250363D01*
X0294714Y0250327D01*
X0294867Y0250288D01*
X0295019Y0250245D01*
X0295170Y0250198D01*
X0295320Y0250147D01*
X0295469Y0250092D01*
X0295616Y0250034D01*
X0295762Y0249972D01*
X0295906Y0249907D01*
X0296048Y0249837D01*
X0296189Y0249765D01*
X0296328Y0249688D01*
X0296464Y0249609D01*
X0296599Y0249525D01*
X0296732Y0249439D01*
X0296862Y0249349D01*
X0296990Y0249256D01*
X0297116Y0249160D01*
X0297239Y0249060D01*
X0297360Y0248958D01*
X0297478Y0248853D01*
X0297593Y0248744D01*
X0297706Y0248633D01*
X0297816Y0248519D01*
X0297923Y0248402D01*
X0298027Y0248283D01*
X0298128Y0248161D01*
X0298225Y0248036D01*
X0298320Y0247909D01*
X0298411Y0247780D01*
X0298500Y0247649D01*
X0298584Y0247515D01*
X0298666Y0247379D01*
X0298744Y0247242D01*
X0298818Y0247102D01*
X0298889Y0246960D01*
X0298957Y0246817D01*
X0299021Y0246672D01*
X0299081Y0246526D01*
X0299137Y0246378D01*
X0299190Y0246229D01*
X0299239Y0246078D01*
X0299284Y0245926D01*
X0299325Y0245773D01*
X0299363Y0245620D01*
X0299396Y0245465D01*
X0299426Y0245309D01*
X0299452Y0245153D01*
X0299473Y0244996D01*
X0299491Y0244839D01*
X0299505Y0244681D01*
X0299515Y0244523D01*
X0299521Y0244365D01*
X0299523Y0244207D01*
X0299521Y0244049D01*
X0299515Y0243891D01*
X0299505Y0243733D01*
X0299491Y0243575D01*
X0299473Y0243418D01*
X0299452Y0243261D01*
X0299426Y0243105D01*
X0299396Y0242949D01*
X0299363Y0242794D01*
X0299325Y0242641D01*
X0299284Y0242488D01*
X0299239Y0242336D01*
X0299190Y0242185D01*
X0299137Y0242036D01*
X0299081Y0241888D01*
X0299021Y0241742D01*
X0298957Y0241597D01*
X0298889Y0241454D01*
X0298818Y0241312D01*
X0298744Y0241172D01*
X0298666Y0241035D01*
X0298584Y0240899D01*
X0298500Y0240765D01*
X0298411Y0240634D01*
X0298320Y0240505D01*
X0298225Y0240378D01*
X0298128Y0240253D01*
X0298027Y0240131D01*
X0297923Y0240012D01*
X0297816Y0239895D01*
X0297706Y0239781D01*
X0297593Y0239670D01*
X0297478Y0239561D01*
X0297360Y0239456D01*
X0297239Y0239354D01*
X0297116Y0239254D01*
X0296990Y0239158D01*
X0296862Y0239065D01*
X0296732Y0238975D01*
X0296599Y0238889D01*
X0296464Y0238805D01*
X0296328Y0238726D01*
X0296189Y0238649D01*
X0296048Y0238577D01*
X0295906Y0238507D01*
X0295762Y0238442D01*
X0295616Y0238380D01*
X0295469Y0238322D01*
X0295320Y0238267D01*
X0295170Y0238216D01*
X0295019Y0238169D01*
X0294867Y0238126D01*
X0294714Y0238087D01*
X0294559Y0238051D01*
X0294404Y0238020D01*
X0294248Y0237992D01*
X0294092Y0237968D01*
X0293935Y0237948D01*
X0293777Y0237932D01*
X0293620Y0237920D01*
X0293461Y0237912D01*
X0293303Y0237908D01*
X0293145Y0237908D01*
X0292987Y0237912D01*
X0292828Y0237920D01*
X0292671Y0237932D01*
X0292513Y0237948D01*
X0292356Y0237968D01*
X0292200Y0237992D01*
X0292044Y0238020D01*
X0291889Y0238051D01*
X0291734Y0238087D01*
X0291581Y0238126D01*
X0291429Y0238169D01*
X0291278Y0238216D01*
X0291128Y0238267D01*
X0290979Y0238322D01*
X0290832Y0238380D01*
X0290686Y0238442D01*
X0290542Y0238507D01*
X0290400Y0238577D01*
X0290259Y0238649D01*
X0290120Y0238726D01*
X0289984Y0238805D01*
X0289849Y0238889D01*
X0289716Y0238975D01*
X0289586Y0239065D01*
X0289458Y0239158D01*
X0289332Y0239254D01*
X0289209Y0239354D01*
X0289088Y0239456D01*
X0288970Y0239561D01*
X0288855Y0239670D01*
X0288742Y0239781D01*
X0288632Y0239895D01*
X0288525Y0240012D01*
X0288421Y0240131D01*
X0288320Y0240253D01*
X0288223Y0240378D01*
X0288128Y0240505D01*
X0288037Y0240634D01*
X0287948Y0240765D01*
X0287864Y0240899D01*
X0287782Y0241035D01*
X0287704Y0241172D01*
X0287630Y0241312D01*
X0287559Y0241454D01*
X0287491Y0241597D01*
X0287427Y0241742D01*
X0287367Y0241888D01*
X0287311Y0242036D01*
X0287258Y0242185D01*
X0287209Y0242336D01*
X0287164Y0242488D01*
X0287123Y0242641D01*
X0287085Y0242794D01*
X0287052Y0242949D01*
X0287022Y0243105D01*
X0286996Y0243261D01*
X0286975Y0243418D01*
X0286957Y0243575D01*
X0286943Y0243733D01*
X0286933Y0243891D01*
X0286927Y0244049D01*
X0286925Y0244207D01*
X0366866Y0158096D02*
X0366868Y0158249D01*
X0366874Y0158403D01*
X0366884Y0158556D01*
X0366898Y0158708D01*
X0366916Y0158861D01*
X0366938Y0159012D01*
X0366963Y0159163D01*
X0366993Y0159314D01*
X0367027Y0159464D01*
X0367064Y0159612D01*
X0367105Y0159760D01*
X0367150Y0159906D01*
X0367199Y0160052D01*
X0367252Y0160196D01*
X0367308Y0160338D01*
X0367368Y0160479D01*
X0367432Y0160619D01*
X0367499Y0160757D01*
X0367570Y0160893D01*
X0367645Y0161027D01*
X0367722Y0161159D01*
X0367804Y0161289D01*
X0367888Y0161417D01*
X0367976Y0161543D01*
X0368067Y0161666D01*
X0368161Y0161787D01*
X0368259Y0161905D01*
X0368359Y0162021D01*
X0368463Y0162134D01*
X0368569Y0162245D01*
X0368678Y0162353D01*
X0368790Y0162458D01*
X0368904Y0162559D01*
X0369022Y0162658D01*
X0369141Y0162754D01*
X0369263Y0162847D01*
X0369388Y0162936D01*
X0369515Y0163023D01*
X0369644Y0163105D01*
X0369775Y0163185D01*
X0369908Y0163261D01*
X0370043Y0163334D01*
X0370180Y0163403D01*
X0370319Y0163468D01*
X0370459Y0163530D01*
X0370601Y0163588D01*
X0370744Y0163643D01*
X0370889Y0163694D01*
X0371035Y0163741D01*
X0371182Y0163784D01*
X0371330Y0163823D01*
X0371479Y0163859D01*
X0371629Y0163890D01*
X0371780Y0163918D01*
X0371931Y0163942D01*
X0372084Y0163962D01*
X0372236Y0163978D01*
X0372389Y0163990D01*
X0372542Y0163998D01*
X0372695Y0164002D01*
X0372849Y0164002D01*
X0373002Y0163998D01*
X0373155Y0163990D01*
X0373308Y0163978D01*
X0373460Y0163962D01*
X0373613Y0163942D01*
X0373764Y0163918D01*
X0373915Y0163890D01*
X0374065Y0163859D01*
X0374214Y0163823D01*
X0374362Y0163784D01*
X0374509Y0163741D01*
X0374655Y0163694D01*
X0374800Y0163643D01*
X0374943Y0163588D01*
X0375085Y0163530D01*
X0375225Y0163468D01*
X0375364Y0163403D01*
X0375501Y0163334D01*
X0375636Y0163261D01*
X0375769Y0163185D01*
X0375900Y0163105D01*
X0376029Y0163023D01*
X0376156Y0162936D01*
X0376281Y0162847D01*
X0376403Y0162754D01*
X0376522Y0162658D01*
X0376640Y0162559D01*
X0376754Y0162458D01*
X0376866Y0162353D01*
X0376975Y0162245D01*
X0377081Y0162134D01*
X0377185Y0162021D01*
X0377285Y0161905D01*
X0377383Y0161787D01*
X0377477Y0161666D01*
X0377568Y0161543D01*
X0377656Y0161417D01*
X0377740Y0161289D01*
X0377822Y0161159D01*
X0377899Y0161027D01*
X0377974Y0160893D01*
X0378045Y0160757D01*
X0378112Y0160619D01*
X0378176Y0160479D01*
X0378236Y0160338D01*
X0378292Y0160196D01*
X0378345Y0160052D01*
X0378394Y0159906D01*
X0378439Y0159760D01*
X0378480Y0159612D01*
X0378517Y0159464D01*
X0378551Y0159314D01*
X0378581Y0159163D01*
X0378606Y0159012D01*
X0378628Y0158861D01*
X0378646Y0158708D01*
X0378660Y0158556D01*
X0378670Y0158403D01*
X0378676Y0158249D01*
X0378678Y0158096D01*
X0378676Y0157943D01*
X0378670Y0157789D01*
X0378660Y0157636D01*
X0378646Y0157484D01*
X0378628Y0157331D01*
X0378606Y0157180D01*
X0378581Y0157029D01*
X0378551Y0156878D01*
X0378517Y0156728D01*
X0378480Y0156580D01*
X0378439Y0156432D01*
X0378394Y0156286D01*
X0378345Y0156140D01*
X0378292Y0155996D01*
X0378236Y0155854D01*
X0378176Y0155713D01*
X0378112Y0155573D01*
X0378045Y0155435D01*
X0377974Y0155299D01*
X0377899Y0155165D01*
X0377822Y0155033D01*
X0377740Y0154903D01*
X0377656Y0154775D01*
X0377568Y0154649D01*
X0377477Y0154526D01*
X0377383Y0154405D01*
X0377285Y0154287D01*
X0377185Y0154171D01*
X0377081Y0154058D01*
X0376975Y0153947D01*
X0376866Y0153839D01*
X0376754Y0153734D01*
X0376640Y0153633D01*
X0376522Y0153534D01*
X0376403Y0153438D01*
X0376281Y0153345D01*
X0376156Y0153256D01*
X0376029Y0153169D01*
X0375900Y0153087D01*
X0375769Y0153007D01*
X0375636Y0152931D01*
X0375501Y0152858D01*
X0375364Y0152789D01*
X0375225Y0152724D01*
X0375085Y0152662D01*
X0374943Y0152604D01*
X0374800Y0152549D01*
X0374655Y0152498D01*
X0374509Y0152451D01*
X0374362Y0152408D01*
X0374214Y0152369D01*
X0374065Y0152333D01*
X0373915Y0152302D01*
X0373764Y0152274D01*
X0373613Y0152250D01*
X0373460Y0152230D01*
X0373308Y0152214D01*
X0373155Y0152202D01*
X0373002Y0152194D01*
X0372849Y0152190D01*
X0372695Y0152190D01*
X0372542Y0152194D01*
X0372389Y0152202D01*
X0372236Y0152214D01*
X0372084Y0152230D01*
X0371931Y0152250D01*
X0371780Y0152274D01*
X0371629Y0152302D01*
X0371479Y0152333D01*
X0371330Y0152369D01*
X0371182Y0152408D01*
X0371035Y0152451D01*
X0370889Y0152498D01*
X0370744Y0152549D01*
X0370601Y0152604D01*
X0370459Y0152662D01*
X0370319Y0152724D01*
X0370180Y0152789D01*
X0370043Y0152858D01*
X0369908Y0152931D01*
X0369775Y0153007D01*
X0369644Y0153087D01*
X0369515Y0153169D01*
X0369388Y0153256D01*
X0369263Y0153345D01*
X0369141Y0153438D01*
X0369022Y0153534D01*
X0368904Y0153633D01*
X0368790Y0153734D01*
X0368678Y0153839D01*
X0368569Y0153947D01*
X0368463Y0154058D01*
X0368359Y0154171D01*
X0368259Y0154287D01*
X0368161Y0154405D01*
X0368067Y0154526D01*
X0367976Y0154649D01*
X0367888Y0154775D01*
X0367804Y0154903D01*
X0367722Y0155033D01*
X0367645Y0155165D01*
X0367570Y0155299D01*
X0367499Y0155435D01*
X0367432Y0155573D01*
X0367368Y0155713D01*
X0367308Y0155854D01*
X0367252Y0155996D01*
X0367199Y0156140D01*
X0367150Y0156286D01*
X0367105Y0156432D01*
X0367064Y0156580D01*
X0367027Y0156728D01*
X0366993Y0156878D01*
X0366963Y0157029D01*
X0366938Y0157180D01*
X0366916Y0157331D01*
X0366898Y0157484D01*
X0366884Y0157636D01*
X0366874Y0157789D01*
X0366868Y0157943D01*
X0366866Y0158096D01*
X0306866Y0041096D02*
X0306868Y0041249D01*
X0306874Y0041403D01*
X0306884Y0041556D01*
X0306898Y0041708D01*
X0306916Y0041861D01*
X0306938Y0042012D01*
X0306963Y0042163D01*
X0306993Y0042314D01*
X0307027Y0042464D01*
X0307064Y0042612D01*
X0307105Y0042760D01*
X0307150Y0042906D01*
X0307199Y0043052D01*
X0307252Y0043196D01*
X0307308Y0043338D01*
X0307368Y0043479D01*
X0307432Y0043619D01*
X0307499Y0043757D01*
X0307570Y0043893D01*
X0307645Y0044027D01*
X0307722Y0044159D01*
X0307804Y0044289D01*
X0307888Y0044417D01*
X0307976Y0044543D01*
X0308067Y0044666D01*
X0308161Y0044787D01*
X0308259Y0044905D01*
X0308359Y0045021D01*
X0308463Y0045134D01*
X0308569Y0045245D01*
X0308678Y0045353D01*
X0308790Y0045458D01*
X0308904Y0045559D01*
X0309022Y0045658D01*
X0309141Y0045754D01*
X0309263Y0045847D01*
X0309388Y0045936D01*
X0309515Y0046023D01*
X0309644Y0046105D01*
X0309775Y0046185D01*
X0309908Y0046261D01*
X0310043Y0046334D01*
X0310180Y0046403D01*
X0310319Y0046468D01*
X0310459Y0046530D01*
X0310601Y0046588D01*
X0310744Y0046643D01*
X0310889Y0046694D01*
X0311035Y0046741D01*
X0311182Y0046784D01*
X0311330Y0046823D01*
X0311479Y0046859D01*
X0311629Y0046890D01*
X0311780Y0046918D01*
X0311931Y0046942D01*
X0312084Y0046962D01*
X0312236Y0046978D01*
X0312389Y0046990D01*
X0312542Y0046998D01*
X0312695Y0047002D01*
X0312849Y0047002D01*
X0313002Y0046998D01*
X0313155Y0046990D01*
X0313308Y0046978D01*
X0313460Y0046962D01*
X0313613Y0046942D01*
X0313764Y0046918D01*
X0313915Y0046890D01*
X0314065Y0046859D01*
X0314214Y0046823D01*
X0314362Y0046784D01*
X0314509Y0046741D01*
X0314655Y0046694D01*
X0314800Y0046643D01*
X0314943Y0046588D01*
X0315085Y0046530D01*
X0315225Y0046468D01*
X0315364Y0046403D01*
X0315501Y0046334D01*
X0315636Y0046261D01*
X0315769Y0046185D01*
X0315900Y0046105D01*
X0316029Y0046023D01*
X0316156Y0045936D01*
X0316281Y0045847D01*
X0316403Y0045754D01*
X0316522Y0045658D01*
X0316640Y0045559D01*
X0316754Y0045458D01*
X0316866Y0045353D01*
X0316975Y0045245D01*
X0317081Y0045134D01*
X0317185Y0045021D01*
X0317285Y0044905D01*
X0317383Y0044787D01*
X0317477Y0044666D01*
X0317568Y0044543D01*
X0317656Y0044417D01*
X0317740Y0044289D01*
X0317822Y0044159D01*
X0317899Y0044027D01*
X0317974Y0043893D01*
X0318045Y0043757D01*
X0318112Y0043619D01*
X0318176Y0043479D01*
X0318236Y0043338D01*
X0318292Y0043196D01*
X0318345Y0043052D01*
X0318394Y0042906D01*
X0318439Y0042760D01*
X0318480Y0042612D01*
X0318517Y0042464D01*
X0318551Y0042314D01*
X0318581Y0042163D01*
X0318606Y0042012D01*
X0318628Y0041861D01*
X0318646Y0041708D01*
X0318660Y0041556D01*
X0318670Y0041403D01*
X0318676Y0041249D01*
X0318678Y0041096D01*
X0318676Y0040943D01*
X0318670Y0040789D01*
X0318660Y0040636D01*
X0318646Y0040484D01*
X0318628Y0040331D01*
X0318606Y0040180D01*
X0318581Y0040029D01*
X0318551Y0039878D01*
X0318517Y0039728D01*
X0318480Y0039580D01*
X0318439Y0039432D01*
X0318394Y0039286D01*
X0318345Y0039140D01*
X0318292Y0038996D01*
X0318236Y0038854D01*
X0318176Y0038713D01*
X0318112Y0038573D01*
X0318045Y0038435D01*
X0317974Y0038299D01*
X0317899Y0038165D01*
X0317822Y0038033D01*
X0317740Y0037903D01*
X0317656Y0037775D01*
X0317568Y0037649D01*
X0317477Y0037526D01*
X0317383Y0037405D01*
X0317285Y0037287D01*
X0317185Y0037171D01*
X0317081Y0037058D01*
X0316975Y0036947D01*
X0316866Y0036839D01*
X0316754Y0036734D01*
X0316640Y0036633D01*
X0316522Y0036534D01*
X0316403Y0036438D01*
X0316281Y0036345D01*
X0316156Y0036256D01*
X0316029Y0036169D01*
X0315900Y0036087D01*
X0315769Y0036007D01*
X0315636Y0035931D01*
X0315501Y0035858D01*
X0315364Y0035789D01*
X0315225Y0035724D01*
X0315085Y0035662D01*
X0314943Y0035604D01*
X0314800Y0035549D01*
X0314655Y0035498D01*
X0314509Y0035451D01*
X0314362Y0035408D01*
X0314214Y0035369D01*
X0314065Y0035333D01*
X0313915Y0035302D01*
X0313764Y0035274D01*
X0313613Y0035250D01*
X0313460Y0035230D01*
X0313308Y0035214D01*
X0313155Y0035202D01*
X0313002Y0035194D01*
X0312849Y0035190D01*
X0312695Y0035190D01*
X0312542Y0035194D01*
X0312389Y0035202D01*
X0312236Y0035214D01*
X0312084Y0035230D01*
X0311931Y0035250D01*
X0311780Y0035274D01*
X0311629Y0035302D01*
X0311479Y0035333D01*
X0311330Y0035369D01*
X0311182Y0035408D01*
X0311035Y0035451D01*
X0310889Y0035498D01*
X0310744Y0035549D01*
X0310601Y0035604D01*
X0310459Y0035662D01*
X0310319Y0035724D01*
X0310180Y0035789D01*
X0310043Y0035858D01*
X0309908Y0035931D01*
X0309775Y0036007D01*
X0309644Y0036087D01*
X0309515Y0036169D01*
X0309388Y0036256D01*
X0309263Y0036345D01*
X0309141Y0036438D01*
X0309022Y0036534D01*
X0308904Y0036633D01*
X0308790Y0036734D01*
X0308678Y0036839D01*
X0308569Y0036947D01*
X0308463Y0037058D01*
X0308359Y0037171D01*
X0308259Y0037287D01*
X0308161Y0037405D01*
X0308067Y0037526D01*
X0307976Y0037649D01*
X0307888Y0037775D01*
X0307804Y0037903D01*
X0307722Y0038033D01*
X0307645Y0038165D01*
X0307570Y0038299D01*
X0307499Y0038435D01*
X0307432Y0038573D01*
X0307368Y0038713D01*
X0307308Y0038854D01*
X0307252Y0038996D01*
X0307199Y0039140D01*
X0307150Y0039286D01*
X0307105Y0039432D01*
X0307064Y0039580D01*
X0307027Y0039728D01*
X0306993Y0039878D01*
X0306963Y0040029D01*
X0306938Y0040180D01*
X0306916Y0040331D01*
X0306898Y0040484D01*
X0306884Y0040636D01*
X0306874Y0040789D01*
X0306868Y0040943D01*
X0306866Y0041096D01*
M02*
