M48
;GenerationSoftware,Autodesk,EAGLE,9.2.2*%
;CreationDate,2019-07-19T05:00:15Z*%
FMAT,2
ICI,OFF
METRIC,TZ,000.000
T14C0.400
T13C0.500
T12C0.610
T11C0.800
T10C0.813
T9C0.900
T8C0.914
T7C1.000
T6C1.016
T5C1.118
T4C1.500
T3C3.000
T2C3.200
T1C3.302
%
G90
M71
T1
X44000Y51826
T2
X59985Y67350
X71415Y67350
T3
X76380Y15760
X91620Y45478
T4
X92636Y11188
X75364Y11188
X75364Y50812
X92636Y50812
T5
X86333Y57843
X83793Y57843
X54549Y70271
X60032Y15429
X46540Y36840
X44000Y36840
X41460Y36840
T6
X67040Y35910
X93000Y57540
X61960Y35910
X3810Y60960
X6350Y60960
X8890Y60960
X11430Y60960
X13970Y60960
X69580Y35910
X21000Y69000
X18460Y69000
X15920Y69000
X13380Y69000
X16510Y60960
X19050Y60960
X64500Y30210
X67040Y30210
X93000Y55000
X64500Y35910
T7
X31750Y24130
X54610Y52070
X70145Y61000
X67605Y61000
X65065Y61000
X68875Y58460
X66335Y58460
X63795Y58460
X62525Y61000
X61255Y58460
X54610Y64770
X54610Y62230
X54610Y59690
X54610Y57150
X54610Y54610
X54610Y49530
X54610Y46990
X54610Y44450
X54610Y41910
X54610Y39370
X54610Y36830
X31750Y64770
X31750Y62230
X31750Y59690
X31750Y57150
X31750Y54610
X31750Y52070
X31750Y49530
X31750Y46990
X31750Y44450
X31750Y41910
X31750Y39370
X31750Y36830
X31750Y34290
X31750Y31750
X31750Y29210
X31750Y26670
X54610Y34290
X31750Y21590
X31750Y19050
X31750Y16510
X54610Y16510
X54610Y19050
X54610Y21590
X54610Y24130
X54610Y26670
X54610Y29210
X54610Y31750
T8
X3810Y11430
X3810Y19050
X3810Y16510
X17380Y20210
X17380Y17670
X3810Y13970
T9
X40180Y24068
X40180Y16448
X37640Y16357
X37640Y23977
X21590Y26510
X13970Y26510
X21590Y29159
X71280Y16970
X71280Y20170
X71280Y22370
X71280Y24570
X68080Y24570
X68080Y22370
X68080Y20170
X68080Y16970
X35100Y24067
X91361Y69376
X13970Y23970
X21590Y23970
X35100Y16447
X91361Y61756
X51000Y13000
X77343Y61846
X77343Y69466
X51012Y8328
X13970Y29159
X59431Y26748
X59431Y19128
T10
X64357Y24156
X62452Y22886
X64357Y21616
T11
X19130Y44450
X19130Y57150
X16510Y49530
X16510Y57150
T12
X24080Y19110
X24080Y16570
X24080Y14030
T13
X44001Y10622
X22268Y57099
X69882Y54987
X66338Y49572
X22268Y44411
X26000Y57000
X26000Y42000
X66301Y55074
T14
X80608Y46790
X77340Y54083
X41720Y31985
X77419Y46803
X46247Y32047
X80600Y54129
X83736Y20047
X83760Y24758
X44000Y15000
X69868Y49513
M30